<svg xmlns="http://www.w3.org/2000/svg" viewBox="0 0 128 128"><path fill="#fff" d="M126.67 98.44c-4.56 1.16-7.38.05-9.91-3.75-5.68-8.51-11.95-16.63-18-24.9-.78-1.07-1.59-2.12-2.6-3.45C89 76 82.18 85.64 75.54 95.24c-2.18 3.15-4.8 4.41-8.75 3.2-5.35-1.63-5.35-1.63-1.06-5.69 12.35-13.66 23.09-28.71 36.37-41.22 2.47-2.32 3.28-4.12 1.38-7.08-6.23-9.71-12.13-19.61-18.72-30.36 4.39-.85 7.65-.55 10.32 3.47 4.82 7.23 10.18 14.1 15.32 21.13 1.1 1.49 2.19 2.97 3.46 4.7 6.48-8.9 12.57-17.27 18.77-25.56 2.19-2.93 4.8-4.19 8.53-3.21L126.67 98.44zM1.33 61.74c.72-3.61 1.2-7.29 2.2-10.83 6-21.43 30.6-30.34 47.5-17.06C60.93 41.64 63.39 52.62 62.9 65H7.1c-.84 22.21 15.15 35.62 35.53 28.78 7.15-2.4 11.36-8 13.47-15 1.07-3.51 2.84-4.06 6.14-3.06-1.69 8.76-5.52 16.08-13.52 20.66-12 6.86-29.13 4.64-38.14-4.89C5.26 85.89 3 78.92 2 71.39c-.15-1.2-.46-2.38-.7-3.57q.03-3.04.03-6.08zm5.87-1.49h50.43c-.33-16.06-10.33-27.47-24-27.57-15-.12-25.78 11.02-26.43 27.57z"/></svg>
