<svg xmlns="http://www.w3.org/2000/svg" viewBox="0 0 128 128"><path fill="#336791" d="M93.809 92.112c.785-6.533.55-7.492 5.416-6.433l1.235.108c3.742.17 8.637-.602 11.513-1.938 6.191-2.873 9.861-7.668 3.758-6.409-13.924 2.873-14.881-1.842-14.881-1.842 14.703-21.815 20.849-49.508 15.543-56.287-14.47-18.489-39.517-9.746-39.936-9.52l-.134.025c-2.751-.571-5.83-.912-9.289-.968-6.301-.104-11.082 1.652-14.535 4.41 0 0-44.19-18.2-42.153 22.92.432 8.729 12.417 66.058 26.724 48.758 5.238-6.332 10.287-11.676 10.287-11.676 2.511 1.665 5.519 2.509 8.709 2.204l.245-.021c-.075.552-.132 1.1-.166 1.643-3.096 3.454-2.186 4.058-8.384 5.336-6.274 1.293-2.592 3.599-.184 4.205 2.921.732 9.675 1.77 14.239-4.635l-.216.643c1.463 1.172 2.423 7.579 2.253 13.389-.17 5.81-.353 9.792.122 12.896.475 3.104 1.145 11.023 6.047 8.754 4.1-1.9 7.34-7.001 7.78-10.872-.017.017.324-2.393.364-6.234z"/></svg>
